<?xml version="1.0" encoding="UTF-8" standalone="no" ?>
<!DOCTYPE svg PUBLIC "-//W3C//DTD SVG 1.1//EN" "http://www.w3.org/Graphics/SVG/1.1/DTD/svg11.dtd">
<svg xmlns="http://www.w3.org/2000/svg" xmlns:xlink="http://www.w3.org/1999/xlink" version="1.1" width="1080" height="1080" viewBox="0 0 1080 1080" xml:space="preserve">
<desc>Created with Fabric.js 5.2.4</desc>
<defs>
</defs>
<g transform="matrix(1 0 0 1 540 540)" id="f91b5cd6-52cf-499b-b353-d2d184d0f1d8"  >
</g>
<g transform="matrix(1 0 0 1 540 540)" id="d3afa6d7-4aab-481a-af53-9a5185bd000a"  >
<rect style="stroke: none; stroke-width: 1; stroke-dasharray: none; stroke-linecap: butt; stroke-dashoffset: 0; stroke-linejoin: miter; stroke-miterlimit: 4; fill: rgb(255,255,255); fill-rule: nonzero; opacity: 1; visibility: hidden;" vector-effect="non-scaling-stroke"  x="-540" y="-540" rx="0" ry="0" width="1080" height="1080" />
</g>
<g transform="matrix(1 0 0 1 540 540)"  >
<g style="" vector-effect="non-scaling-stroke"   >
		<g transform="matrix(0.13 0 0 -0.13 -366.6 -366.87)"  >
<path style="stroke: none; stroke-width: 1; stroke-dasharray: none; stroke-linecap: butt; stroke-dashoffset: 0; stroke-linejoin: miter; stroke-miterlimit: 4; fill: rgb(0,0,0); fill-rule: nonzero; opacity: 1;" vector-effect="non-scaling-stroke"  transform=" translate(-4750, -10125)" d="M 3510 10125 L 3510 8870 L 4750 8870 L 5990 8870 L 5990 9384 L 5990 9899 L 5795 10011 L 5601 10124 L 5678 10168 C 5720 10193 5807 10243 5870 10280 L 5985 10346 L 5988 10863 L 5990 11380 L 4750 11380 L 3510 11380 L 3510 10125 z M 4940 10475 L 4725 10260 L 4533 10260 L 4340 10260 L 4340 10475 L 4340 10690 L 4747 10690 L 5155 10690 L 4940 10475 z M 4940 9735 L 5155 9520 L 4747 9520 L 4340 9520 L 4340 9735 L 4340 9950 L 4533 9950 L 4725 9950 L 4940 9735 z" stroke-linecap="round" />
</g>
		<g transform="matrix(0.13 0 0 -0.13 -2.6 0)"  >
<path style="stroke: none; stroke-width: 1; stroke-dasharray: none; stroke-linecap: butt; stroke-dashoffset: 0; stroke-linejoin: miter; stroke-miterlimit: 4; fill: rgb(0,0,0); fill-rule: nonzero; opacity: 1;" vector-effect="non-scaling-stroke"  transform=" translate(-7480, -7373.5)" d="M 6240 7441 L 6240 3503 L 6298 3487 C 6480 3436 6798 3386 7020 3374 L 7140 3367 L 7140 4953 L 7140 6540 L 7480 6540 L 7820 6540 L 7820 4953 L 7820 3367 L 7958 3373 C 8176 3383 8495 3431 8683 3481 L 8720 3491 L 8720 7435 L 8720 11380 L 7480 11380 L 6240 11380 L 6240 7441 z M 7820 8735 L 7820 7220 L 7480 7220 L 7140 7220 L 7140 8735 L 7140 10250 L 7480 10250 L 7820 10250 L 7820 8735 z" stroke-linecap="round" />
</g>
		<g transform="matrix(0.13 0 0 -0.13 364.07 -13.47)"  >
<path style="stroke: none; stroke-width: 1; stroke-dasharray: none; stroke-linecap: butt; stroke-dashoffset: 0; stroke-linejoin: miter; stroke-miterlimit: 4; fill: rgb(0,0,0); fill-rule: nonzero; opacity: 1;" vector-effect="non-scaling-stroke"  transform=" translate(-10230, -7474.5)" d="M 8970 11035 L 8970 10690 L 9305 10690 L 9640 10690 L 9640 8090 L 9640 5490 L 9305 5490 L 8970 5490 L 8970 4529 L 8970 3569 L 8993 3575 C 9128 3616 9437 3757 9615 3859 C 10240 4219 10772 4777 11085 5401 L 11130 5490 L 10880 5490 L 10630 5490 L 10630 8090 L 10630 10690 L 11060 10690 L 11490 10690 L 11490 11035 L 11490 11380 L 10230 11380 L 8970 11380 L 8970 11035 z" stroke-linecap="round" />
</g>
		<g transform="matrix(0.13 0 0 -0.13 -366.67 -0.87)"  >
<path style="stroke: none; stroke-width: 1; stroke-dasharray: none; stroke-linecap: butt; stroke-dashoffset: 0; stroke-linejoin: miter; stroke-miterlimit: 4; fill: rgb(0,0,0); fill-rule: nonzero; opacity: 1;" vector-effect="non-scaling-stroke"  transform=" translate(-4749.5, -7380)" d="M 3510 8355 L 3510 8090 L 3790 8090 L 4070 8090 L 4070 7490 L 4070 6890 L 3790 6890 L 3509 6890 L 3515 6823 C 3535 6608 3583 6311 3620 6178 L 3631 6140 L 4810 6140 L 5990 6140 L 5990 6515 L 5990 6890 L 5725 6890 L 5460 6890 L 5460 7490 L 5460 8090 L 5725 8090 L 5990 8090 L 5990 8355 L 5990 8620 L 4750 8620 L 3510 8620 L 3510 8355 z" stroke-linecap="round" />
</g>
		<g transform="matrix(0.13 0 0 -0.13 -353.33 351.8)"  >
<path style="stroke: none; stroke-width: 1; stroke-dasharray: none; stroke-linecap: butt; stroke-dashoffset: 0; stroke-linejoin: miter; stroke-miterlimit: 4; fill: rgb(0,0,0); fill-rule: nonzero; opacity: 1;" vector-effect="non-scaling-stroke"  transform=" translate(-4849.5, -4735)" d="M 3715 5868 C 3727 5828 3790 5667 3816 5610 L 3841 5555 L 4700 5076 L 5560 4597 L 5560 4364 L 5560 4130 L 5470 4130 L 5380 4130 L 5378 4312 L 5375 4493 L 4695 4872 C 4321 5081 4009 5254 4001 5258 C 3982 5265 4004 5229 4135 5030 C 4566 4380 5207 3871 5933 3602 L 5990 3580 L 5990 4089 L 5990 4597 L 5530 4860 L 5070 5123 L 5070 5351 L 5070 5580 L 5160 5580 L 5250 5580 L 5252 5403 L 5255 5225 L 5615 5018 C 5813 4904 5978 4811 5983 4811 C 5987 4810 5990 5053 5990 5350 L 5990 5890 L 4849 5890 L 3709 5890 L 3715 5868 z" stroke-linecap="round" />
</g>
</g>
</g>
</svg>